<svg xmlns="http://www.w3.org/2000/svg" xmlns:xlink="http://www.w3.org/1999/xlink" width="500" zoomAndPan="magnify" viewBox="0 0 375 374.999991" height="500" preserveAspectRatio="xMidYMid meet" version="1.0"><defs><clipPath id="fccfeaddfb"><path d="M 116.589844 112.5 L 258.339844 112.5 L 258.339844 262.5 L 116.589844 262.5 Z M 116.589844 112.5 " clip-rule="nonzero"/></clipPath><clipPath id="dc8250cb6d"><path d="M 186 112.5 L 258.339844 112.5 L 258.339844 262.5 L 186 262.5 Z M 186 112.5 " clip-rule="nonzero"/></clipPath></defs><g clip-path="url(#fccfeaddfb)"><path fill="#e23237" d="M 116.765625 137.363281 L 186.527344 112.5 L 258.164062 136.921875 L 246.570312 229.261719 L 186.527344 262.523438 L 127.429688 229.703125 L 116.765625 137.367188 Z M 116.765625 137.363281 " fill-opacity="1" fill-rule="nonzero"/></g><g clip-path="url(#dc8250cb6d)"><path fill="#b52e31" d="M 258.164062 136.921875 L 186.527344 112.5 L 186.527344 262.519531 L 246.570312 229.308594 Z M 258.164062 136.921875 " fill-opacity="1" fill-rule="nonzero"/></g><path fill="#ffffff" d="M 186.640625 130.015625 L 143.167969 226.773438 L 159.40625 226.496094 L 168.132812 204.671875 L 207.128906 204.671875 L 216.6875 226.773438 L 232.207031 227.050781 Z M 186.75 161.015625 L 201.4375 191.738281 L 173.824219 191.738281 Z M 186.75 161.015625 " fill-opacity="1" fill-rule="nonzero"/></svg>