<svg xmlns="http://www.w3.org/2000/svg" xmlns:xlink="http://www.w3.org/1999/xlink" width="500" zoomAndPan="magnify" viewBox="0 0 375 374.999991" height="500" preserveAspectRatio="xMidYMid meet" version="1.0"><defs><clipPath id="456cf5b0d9"><path d="M 134.316406 141 L 240.816406 141 L 240.816406 262.5 L 134.316406 262.5 Z M 134.316406 141 " clip-rule="nonzero"/></clipPath><clipPath id="898ab2be7d"><path d="M 159 112.5 L 176 112.5 L 176 133 L 159 133 Z M 159 112.5 " clip-rule="nonzero"/></clipPath><clipPath id="80a29e493d"><path d="M 178 112.5 L 195 112.5 L 195 134 L 178 134 Z M 178 112.5 " clip-rule="nonzero"/></clipPath><clipPath id="100ab57150"><path d="M 198 112.5 L 215 112.5 L 215 134 L 198 134 Z M 198 112.5 " clip-rule="nonzero"/></clipPath></defs><g clip-path="url(#456cf5b0d9)"><path fill="#264de4" d="M 187.523438 262.496094 L 144.070312 250.449219 L 134.386719 141.980469 L 240.789062 141.976562 L 231.097656 250.429688 L 187.523438 262.492188 Z M 187.523438 262.496094 " fill-opacity="1" fill-rule="nonzero"/></g><path fill="#2965f1" d="M 222.800781 243.527344 L 231.085938 150.847656 L 187.589844 150.847656 L 187.589844 253.273438 L 222.800781 243.523438 Z M 222.800781 243.527344 " fill-opacity="1" fill-rule="nonzero"/><path fill="#ebebeb" d="M 156.585938 191.078125 L 157.777344 204.378906 L 187.589844 204.378906 L 187.589844 191.078125 Z M 156.585938 191.078125 " fill-opacity="1" fill-rule="nonzero"/><path fill="#ebebeb" d="M 154.1875 164.148438 L 155.398438 177.453125 L 187.589844 177.453125 L 187.589844 164.148438 Z M 154.1875 164.148438 " fill-opacity="1" fill-rule="nonzero"/><path fill="#ebebeb" d="M 187.589844 225.625 L 187.53125 225.644531 L 172.695312 221.640625 L 171.746094 211.03125 L 158.375 211.03125 L 160.242188 231.921875 L 187.527344 239.484375 L 187.589844 239.46875 Z M 187.589844 225.625 " fill-opacity="1" fill-rule="nonzero"/><g clip-path="url(#898ab2be7d)"><path fill="#000000" d="M 159.429688 112.5 L 175.5625 112.5 L 175.5625 119.238281 L 166.175781 119.238281 L 166.175781 125.976562 L 175.5625 125.976562 L 175.5625 132.714844 L 159.429688 132.714844 Z M 159.429688 112.5 " fill-opacity="1" fill-rule="nonzero"/></g><g clip-path="url(#80a29e493d)"><path fill="#000000" d="M 178.789062 112.5 L 194.921875 112.5 L 194.921875 118.359375 L 185.535156 118.359375 L 185.535156 119.53125 L 194.921875 119.53125 L 194.921875 133.007812 L 178.789062 133.007812 L 178.789062 126.855469 L 188.175781 126.855469 L 188.175781 125.683594 L 178.789062 125.683594 Z M 178.789062 112.5 " fill-opacity="1" fill-rule="nonzero"/></g><g clip-path="url(#100ab57150)"><path fill="#000000" d="M 198.148438 112.5 L 214.285156 112.5 L 214.285156 118.359375 L 204.894531 118.359375 L 204.894531 119.53125 L 214.285156 119.53125 L 214.285156 133.007812 L 198.148438 133.007812 L 198.148438 126.855469 L 207.535156 126.855469 L 207.535156 125.683594 L 198.148438 125.683594 Z M 198.148438 112.5 " fill-opacity="1" fill-rule="nonzero"/></g><path fill="#ffffff" d="M 218.507812 191.078125 L 220.910156 164.148438 L 187.542969 164.148438 L 187.542969 177.453125 L 206.3125 177.453125 L 205.101562 191.078125 L 187.542969 191.078125 L 187.542969 204.378906 L 203.949219 204.378906 L 202.398438 221.632812 L 187.542969 225.640625 L 187.542969 239.476562 L 214.851562 231.921875 L 215.050781 229.671875 L 218.183594 194.648438 Z M 218.507812 191.078125 " fill-opacity="1" fill-rule="nonzero"/></svg>