<svg xmlns="http://www.w3.org/2000/svg" xmlns:xlink="http://www.w3.org/1999/xlink" width="500" zoomAndPan="magnify" viewBox="0 0 375 374.999991" height="500" preserveAspectRatio="xMidYMid meet" version="1.0"><path fill="#000000" d="M 193.53125 88.339844 C 136.179688 84.671875 88.695312 132.152344 92.363281 189.507812 C 95.394531 236.914062 133.6875 275.207031 181.09375 278.238281 C 238.449219 281.90625 285.929688 234.425781 282.265625 177.070312 C 279.230469 129.664062 240.9375 91.371094 193.53125 88.339844 Z M 230.394531 230.5 C 234.136719 217.644531 236.371094 202.855469 236.671875 186.949219 L 275.050781 186.949219 C 274.210938 207.34375 266.378906 225.957031 253.898438 240.472656 C 248.167969 236.457031 240.164062 233.066406 230.394531 230.5 Z M 120.730469 240.472656 C 108.25 225.957031 100.417969 207.34375 99.578125 186.949219 L 137.957031 186.949219 C 138.253906 202.855469 140.488281 217.644531 144.234375 230.5 C 134.460938 233.066406 126.453125 236.457031 120.730469 240.472656 Z M 144.210938 136.140625 C 140.480469 148.984375 138.253906 163.75 137.953125 179.628906 L 99.578125 179.628906 C 100.414062 159.328125 108.171875 140.796875 120.550781 126.3125 C 126.375 130.261719 134.4375 133.605469 144.210938 136.140625 Z M 183.652344 179.628906 L 145.273438 179.628906 C 145.589844 164.484375 147.839844 150.1875 151.519531 137.824219 C 161.414062 139.816406 172.382812 140.953125 183.652344 141.15625 Z M 183.652344 186.949219 L 183.652344 225.421875 C 172.359375 225.625 161.390625 226.777344 151.535156 228.800781 C 147.847656 216.421875 145.589844 202.113281 145.273438 186.949219 Z M 190.972656 186.949219 L 229.351562 186.949219 C 229.039062 202.113281 226.78125 216.421875 223.09375 228.800781 C 213.230469 226.777344 202.265625 225.625 190.972656 225.421875 Z M 190.972656 179.628906 L 190.972656 141.15625 C 202.242188 140.953125 213.214844 139.816406 223.105469 137.820312 C 226.785156 150.1875 229.039062 164.484375 229.351562 179.628906 Z M 190.972656 133.839844 L 190.972656 95.828125 C 202.992188 98.109375 213.746094 111.460938 220.796875 130.828125 C 211.601562 132.621094 201.429688 133.644531 190.972656 133.839844 Z M 183.652344 95.828125 L 183.652344 133.839844 C 173.195312 133.644531 163.023438 132.621094 153.828125 130.828125 C 160.878906 111.460938 171.632812 98.109375 183.652344 95.828125 Z M 183.652344 232.742188 L 183.652344 270.75 C 171.640625 268.46875 160.894531 255.136719 153.84375 235.789062 C 163.007812 233.972656 173.175781 232.9375 183.652344 232.742188 Z M 190.972656 270.75 L 190.972656 232.742188 C 201.449219 232.9375 211.613281 233.972656 220.785156 235.789062 C 213.730469 255.136719 202.984375 268.46875 190.972656 270.75 Z M 236.671875 179.628906 C 236.375 163.75 234.144531 148.984375 230.414062 136.140625 C 240.191406 133.601562 248.253906 130.261719 254.074219 126.3125 C 266.453125 140.796875 274.210938 159.328125 275.050781 179.628906 Z M 249.015625 120.855469 C 243.890625 124.101562 236.722656 126.964844 228.179688 129.15625 C 223.585938 116.171875 217.351562 105.605469 210.007812 98.449219 C 224.945312 102.449219 238.324219 110.289062 249.015625 120.855469 Z M 146.449219 129.160156 C 137.90625 126.964844 130.738281 124.101562 125.613281 120.855469 C 136.300781 110.289062 149.683594 102.449219 164.621094 98.449219 C 157.277344 105.605469 151.039062 116.175781 146.449219 129.160156 Z M 125.796875 245.898438 C 130.8125 242.605469 137.925781 239.703125 146.46875 237.484375 C 151.058594 250.4375 157.285156 260.980469 164.621094 268.128906 C 149.769531 264.152344 136.457031 256.375 125.796875 245.898438 Z M 228.15625 237.484375 C 236.699219 239.703125 243.816406 242.605469 248.828125 245.898438 C 238.167969 256.375 224.859375 264.152344 210.007812 268.128906 C 217.339844 260.980469 223.566406 250.4375 228.15625 237.484375 Z M 228.15625 237.484375 " fill-opacity="1" fill-rule="nonzero"/></svg>