<svg xmlns="http://www.w3.org/2000/svg" xmlns:xlink="http://www.w3.org/1999/xlink" width="500" zoomAndPan="magnify" viewBox="0 0 375 374.999991" height="500" preserveAspectRatio="xMidYMid meet" version="1.0"><defs><clipPath id="7b0aa82650"><path d="M 157 107.828125 L 196 107.828125 L 196 190 L 157 190 Z M 157 107.828125 " clip-rule="nonzero"/></clipPath></defs><path fill="#5382a1" d="M 156.992188 222.847656 C 156.992188 222.847656 151.308594 226.152344 161.039062 227.273438 C 172.828125 228.617188 178.847656 228.421875 191.835938 225.964844 C 191.835938 225.964844 195.253906 228.105469 200.023438 229.960938 C 170.90625 242.441406 134.125 229.238281 156.992188 222.847656 " fill-opacity="1" fill-rule="nonzero"/><path fill="#5382a1" d="M 153.4375 206.5625 C 153.4375 206.5625 147.058594 211.28125 156.796875 212.289062 C 169.386719 213.585938 179.332031 213.695312 196.535156 210.378906 C 196.535156 210.378906 198.917969 212.792969 202.660156 214.113281 C 167.453125 224.40625 128.242188 214.925781 153.433594 206.5625 " fill-opacity="1" fill-rule="nonzero"/><path fill="#e76f00" d="M 183.429688 178.9375 C 190.605469 187.199219 181.542969 194.632812 181.542969 194.632812 C 181.542969 194.632812 199.765625 185.226562 191.398438 173.449219 C 183.582031 162.46875 177.589844 157.011719 210.03125 138.195312 C 210.03125 138.195312 159.109375 150.914062 183.429688 178.9375 " fill-opacity="1" fill-rule="nonzero"/><path fill="#5382a1" d="M 221.941406 234.890625 C 221.941406 234.890625 226.148438 238.359375 217.3125 241.042969 C 200.503906 246.132812 147.355469 247.667969 132.589844 241.246094 C 127.285156 238.9375 137.238281 235.730469 140.367188 235.054688 C 143.632812 234.347656 145.5 234.484375 145.5 234.484375 C 139.597656 230.324219 107.347656 242.644531 129.117188 246.175781 C 188.484375 255.800781 237.339844 241.839844 221.941406 234.890625 " fill-opacity="1" fill-rule="nonzero"/><path fill="#5382a1" d="M 159.726562 189.691406 C 159.726562 189.691406 132.695312 196.109375 150.152344 198.441406 C 157.527344 199.429688 172.226562 199.207031 185.910156 198.058594 C 197.101562 197.113281 208.335938 195.105469 208.335938 195.105469 C 208.335938 195.105469 204.390625 196.800781 201.535156 198.746094 C 174.082031 205.96875 121.050781 202.609375 136.316406 195.222656 C 149.230469 188.984375 159.726562 189.691406 159.726562 189.691406 " fill-opacity="1" fill-rule="nonzero"/><path fill="#5382a1" d="M 208.222656 216.796875 C 236.128906 202.296875 223.222656 188.359375 214.21875 190.238281 C 212.011719 190.699219 211.027344 191.09375 211.027344 191.09375 C 211.027344 191.09375 211.84375 189.808594 213.414062 189.253906 C 231.230469 182.992188 244.933594 207.730469 207.660156 217.527344 C 207.660156 217.527344 208.09375 217.140625 208.222656 216.796875 " fill-opacity="1" fill-rule="nonzero"/><g clip-path="url(#7b0aa82650)"><path fill="#e76f00" d="M 191.398438 107.816406 C 191.398438 107.816406 206.855469 123.277344 176.738281 147.050781 C 152.589844 166.121094 171.234375 176.992188 176.730469 189.417969 C 162.632812 176.699219 152.289062 165.503906 159.230469 155.085938 C 169.417969 139.789062 197.632812 132.375 191.398438 107.816406 " fill-opacity="1" fill-rule="nonzero"/></g><path fill="#5382a1" d="M 162.46875 256.09375 C 189.257812 257.808594 230.390625 255.140625 231.363281 242.46875 C 231.363281 242.46875 229.488281 247.269531 209.226562 251.085938 C 186.363281 255.386719 158.164062 254.886719 141.441406 252.128906 C 141.441406 252.128906 144.863281 254.960938 162.46875 256.09375 " fill-opacity="1" fill-rule="nonzero"/></svg>