<svg xmlns="http://www.w3.org/2000/svg" xmlns:xlink="http://www.w3.org/1999/xlink" width="500" zoomAndPan="magnify" viewBox="0 0 375 374.999991" height="500" preserveAspectRatio="xMidYMid meet" version="1.0"><defs><g/><clipPath id="380ebc2b79"><path d="M 159.996094 128 L 191 128 L 191 179.480469 L 159.996094 179.480469 Z M 159.996094 128 " clip-rule="nonzero"/></clipPath><clipPath id="2a51a8121d"><path d="M 187 128 L 217.746094 128 L 217.746094 179.480469 L 187 179.480469 Z M 187 128 " clip-rule="nonzero"/></clipPath><clipPath id="73d3e7be61"><path d="M 159.996094 109.054688 L 217.746094 109.054688 L 217.746094 152 L 159.996094 152 Z M 159.996094 109.054688 " clip-rule="nonzero"/></clipPath></defs><g clip-path="url(#380ebc2b79)"><path fill="#35b729" d="M 188.976562 179.195312 C 188.59375 179.195312 188.214844 179.074219 187.890625 178.839844 L 160.742188 159.050781 C 160.273438 158.710938 159.996094 158.164062 159.996094 157.585938 L 159.996094 130.59375 C 159.996094 129.910156 160.378906 129.289062 160.988281 128.976562 C 161.601562 128.664062 162.335938 128.714844 162.894531 129.113281 L 190.042969 148.347656 C 190.523438 148.691406 190.8125 149.242188 190.8125 149.828125 L 190.8125 177.375 C 190.8125 178.0625 190.421875 178.6875 189.804688 179 C 189.542969 179.128906 189.261719 179.195312 188.976562 179.195312 Z M 163.664062 156.667969 L 187.144531 173.78125 L 187.144531 150.765625 L 163.664062 134.125 Z M 163.664062 156.667969 " fill-opacity="1" fill-rule="nonzero"/></g><g clip-path="url(#2a51a8121d)"><path fill="#35b729" d="M 188.976562 179.195312 C 188.695312 179.195312 188.410156 179.128906 188.148438 178.996094 C 187.53125 178.683594 187.144531 178.058594 187.144531 177.375 L 187.144531 149.828125 C 187.144531 149.246094 187.425781 148.699219 187.902344 148.355469 L 214.832031 128.964844 C 215.390625 128.5625 216.128906 128.503906 216.742188 128.816406 C 217.359375 129.125 217.746094 129.753906 217.746094 130.4375 L 217.746094 157.863281 C 217.746094 158.445312 217.464844 158.992188 216.992188 159.332031 L 190.058594 178.84375 C 189.738281 179.074219 189.359375 179.195312 188.976562 179.195312 Z M 190.8125 150.757812 L 190.8125 173.792969 L 214.078125 156.941406 L 214.078125 134.003906 Z M 190.8125 150.757812 " fill-opacity="1" fill-rule="nonzero"/></g><g clip-path="url(#73d3e7be61)"><path fill="#35b729" d="M 188.976562 151.648438 C 188.605469 151.648438 188.230469 151.535156 187.914062 151.308594 L 160.761719 132.070312 C 160.285156 131.730469 159.996094 131.183594 159.996094 130.597656 C 159.992188 130.011719 160.273438 129.464844 160.753906 129.121094 L 187.902344 109.609375 C 188.546875 109.144531 189.417969 109.148438 190.058594 109.613281 L 216.992188 129.125 C 217.46875 129.464844 217.746094 130.015625 217.746094 130.597656 C 217.742188 131.179688 217.460938 131.726562 216.984375 132.066406 L 190.050781 151.304688 C 189.730469 151.53125 189.355469 151.648438 188.976562 151.648438 Z M 164.96875 130.582031 L 188.972656 147.589844 L 212.789062 130.582031 L 188.972656 113.332031 Z M 164.96875 130.582031 " fill-opacity="1" fill-rule="nonzero"/></g><g fill="#ffffff" fill-opacity="1"><g transform="translate(57.723909, 215.943531)"><g><path d="M 2.171875 -29.921875 L 2.171875 -30.75 L 14.703125 -30.75 C 16.398438 -30.75 17.921875 -30.570312 19.265625 -30.21875 C 20.554688 -29.882812 21.617188 -29.382812 22.453125 -28.71875 C 23.328125 -27.96875 23.945312 -27.140625 24.3125 -26.234375 C 24.757812 -25.140625 24.984375 -24.035156 24.984375 -22.921875 C 24.984375 -22.222656 24.832031 -21.441406 24.53125 -20.578125 C 24.289062 -19.890625 23.890625 -19.191406 23.328125 -18.484375 C 22.898438 -17.953125 22.234375 -17.40625 21.328125 -16.84375 C 20.546875 -16.363281 19.660156 -15.992188 18.671875 -15.734375 C 21.117188 -15.398438 22.988281 -14.609375 24.28125 -13.359375 C 25.582031 -12.097656 26.234375 -10.441406 26.234375 -8.390625 C 26.234375 -7.023438 26 -5.847656 25.53125 -4.859375 C 25.050781 -3.835938 24.367188 -2.953125 23.484375 -2.203125 C 22.691406 -1.523438 21.601562 -0.984375 20.21875 -0.578125 C 18.914062 -0.191406 17.453125 0 15.828125 0 L 2.203125 0 L 2.203125 -0.875 C 2.203125 -1.351562 2.476562 -1.613281 3.03125 -1.65625 L 3.484375 -1.65625 C 3.535156 -1.65625 3.664062 -1.660156 3.875 -1.671875 C 4.09375 -1.691406 4.28125 -1.703125 4.4375 -1.703125 C 4.5625 -1.703125 4.785156 -1.707031 5.109375 -1.71875 C 5.429688 -1.726562 5.679688 -1.734375 5.859375 -1.734375 L 5.859375 -29.0625 C 5.679688 -29.0625 5.429688 -29.066406 5.109375 -29.078125 C 4.785156 -29.085938 4.5625 -29.09375 4.4375 -29.09375 C 4.28125 -29.09375 4.09375 -29.097656 3.875 -29.109375 C 3.664062 -29.128906 3.535156 -29.140625 3.484375 -29.140625 L 3.03125 -29.140625 C 2.457031 -29.179688 2.171875 -29.441406 2.171875 -29.921875 Z M 8.09375 -1.78125 L 15.78125 -1.78125 C 18.488281 -1.78125 20.535156 -2.359375 21.921875 -3.515625 C 23.304688 -4.679688 24 -6.320312 24 -8.4375 C 24 -9.351562 23.816406 -10.238281 23.453125 -11.09375 C 23.109375 -11.800781 22.566406 -12.453125 21.828125 -13.046875 C 21.097656 -13.597656 20.242188 -14.019531 19.265625 -14.3125 C 18.316406 -14.59375 17.171875 -14.734375 15.828125 -14.734375 L 8.09375 -14.734375 Z M 8.09375 -16.359375 L 14.734375 -16.359375 C 16.054688 -16.359375 17.273438 -16.546875 18.390625 -16.921875 C 19.398438 -17.265625 20.226562 -17.742188 20.875 -18.359375 C 21.570312 -18.992188 22.054688 -19.65625 22.328125 -20.34375 C 22.609375 -21.050781 22.75 -21.835938 22.75 -22.703125 C 22.75 -24.742188 22.097656 -26.3125 20.796875 -27.40625 C 19.453125 -28.476562 17.421875 -29.015625 14.703125 -29.015625 L 8.09375 -29.015625 Z M 8.09375 -16.359375 "/></g></g><g transform="translate(85.463653, 215.943531)"><g><path d="M 1.609375 -15.40625 C 1.609375 -17.71875 1.972656 -19.859375 2.703125 -21.828125 C 3.390625 -23.742188 4.382812 -25.40625 5.6875 -26.8125 C 6.96875 -28.175781 8.519531 -29.242188 10.34375 -30.015625 C 12.144531 -30.765625 14.117188 -31.140625 16.265625 -31.140625 C 18.472656 -31.140625 20.476562 -30.765625 22.28125 -30.015625 C 24.0625 -29.273438 25.597656 -28.207031 26.890625 -26.8125 C 28.191406 -25.40625 29.191406 -23.742188 29.890625 -21.828125 C 30.609375 -19.859375 30.96875 -17.71875 30.96875 -15.40625 C 30.96875 -13.050781 30.609375 -10.890625 29.890625 -8.921875 C 29.191406 -7.003906 28.191406 -5.347656 26.890625 -3.953125 C 25.640625 -2.609375 24.101562 -1.550781 22.28125 -0.78125 C 20.476562 -0.03125 18.472656 0.34375 16.265625 0.34375 C 14.117188 0.34375 12.144531 -0.03125 10.34375 -0.78125 C 8.476562 -1.5625 6.925781 -2.617188 5.6875 -3.953125 C 4.382812 -5.347656 3.390625 -7.003906 2.703125 -8.921875 C 1.972656 -10.890625 1.609375 -13.050781 1.609375 -15.40625 Z M 4.78125 -21.171875 C 4.195312 -19.578125 3.90625 -17.648438 3.90625 -15.390625 C 3.90625 -13.140625 4.195312 -11.21875 4.78125 -9.625 C 5.40625 -7.894531 6.257812 -6.441406 7.34375 -5.265625 C 8.488281 -4.023438 9.789062 -3.113281 11.25 -2.53125 C 12.769531 -1.914062 14.441406 -1.609375 16.265625 -1.609375 C 18.117188 -1.609375 19.804688 -1.914062 21.328125 -2.53125 C 22.785156 -3.113281 24.085938 -4.023438 25.234375 -5.265625 C 26.265625 -6.390625 27.109375 -7.84375 27.765625 -9.625 C 28.335938 -11.21875 28.625 -13.140625 28.625 -15.390625 C 28.625 -17.648438 28.335938 -19.578125 27.765625 -21.171875 C 27.109375 -22.960938 26.265625 -24.414062 25.234375 -25.53125 C 24.085938 -26.78125 22.785156 -27.691406 21.328125 -28.265625 C 19.742188 -28.910156 18.054688 -29.234375 16.265625 -29.234375 C 14.515625 -29.234375 12.84375 -28.910156 11.25 -28.265625 C 9.789062 -27.691406 8.488281 -26.78125 7.34375 -25.53125 C 6.257812 -24.351562 5.40625 -22.898438 4.78125 -21.171875 Z M 4.78125 -21.171875 "/></g></g><g transform="translate(118.216092, 215.943531)"><g><path d="M 1.046875 -29.921875 L 1.046875 -30.75 L 11.125 -30.75 L 11.125 -29.921875 C 11.125 -29.441406 10.835938 -29.179688 10.265625 -29.140625 L 9.75 -29.140625 C 9.664062 -29.140625 9.476562 -29.128906 9.1875 -29.109375 C 8.90625 -29.097656 8.664062 -29.09375 8.46875 -29.09375 C 8.289062 -29.09375 8.03125 -29.085938 7.6875 -29.078125 C 7.34375 -29.066406 7.085938 -29.0625 6.921875 -29.0625 L 6.921875 -11.75 C 6.921875 -10.300781 7.132812 -8.96875 7.5625 -7.75 C 8.03125 -6.4375 8.640625 -5.363281 9.390625 -4.53125 C 10.148438 -3.632812 11.140625 -2.910156 12.359375 -2.359375 C 13.503906 -1.835938 14.835938 -1.578125 16.359375 -1.578125 C 17.835938 -1.578125 19.15625 -1.835938 20.3125 -2.359375 C 21.5 -2.898438 22.488281 -3.609375 23.28125 -4.484375 C 24.082031 -5.367188 24.707031 -6.457031 25.15625 -7.75 C 25.570312 -9.007812 25.78125 -10.34375 25.78125 -11.75 L 25.78125 -29.0625 C 25.613281 -29.0625 25.359375 -29.066406 25.015625 -29.078125 C 24.679688 -29.085938 24.421875 -29.09375 24.234375 -29.09375 C 24.035156 -29.09375 23.796875 -29.097656 23.515625 -29.109375 C 23.234375 -29.128906 23.046875 -29.140625 22.953125 -29.140625 L 22.453125 -29.140625 C 21.867188 -29.179688 21.578125 -29.441406 21.578125 -29.921875 L 21.578125 -30.75 L 31.671875 -30.75 L 31.671875 -29.921875 C 31.671875 -29.441406 31.378906 -29.179688 30.796875 -29.140625 L 30.421875 -29.140625 C 30.359375 -29.140625 30.207031 -29.128906 29.96875 -29.109375 C 29.738281 -29.097656 29.546875 -29.09375 29.390625 -29.09375 C 29.265625 -29.09375 29.050781 -29.085938 28.75 -29.078125 C 28.445312 -29.066406 28.203125 -29.0625 28.015625 -29.0625 L 28.015625 -11.75 C 28.015625 -10.132812 27.738281 -8.554688 27.1875 -7.015625 C 26.644531 -5.515625 25.875 -4.21875 24.875 -3.125 C 23.882812 -2.0625 22.648438 -1.210938 21.171875 -0.578125 C 19.742188 0.0351562 18.140625 0.34375 16.359375 0.34375 C 14.546875 0.34375 12.921875 0.0351562 11.484375 -0.578125 C 10.015625 -1.210938 8.785156 -2.0625 7.796875 -3.125 C 6.785156 -4.21875 6.015625 -5.515625 5.484375 -7.015625 C 4.953125 -8.484375 4.6875 -10.0625 4.6875 -11.75 L 4.6875 -29.0625 C 4.507812 -29.0625 4.257812 -29.066406 3.9375 -29.078125 C 3.625 -29.085938 3.398438 -29.09375 3.265625 -29.09375 C 3.109375 -29.09375 2.925781 -29.097656 2.71875 -29.109375 C 2.507812 -29.128906 2.375 -29.140625 2.3125 -29.140625 L 1.875 -29.140625 C 1.320312 -29.179688 1.046875 -29.441406 1.046875 -29.921875 Z M 1.046875 -29.921875 "/></g></g><g transform="translate(150.88357, 215.943531)"><g><path d="M 2.171875 0 L 2.171875 -0.875 C 2.171875 -1.351562 2.457031 -1.613281 3.03125 -1.65625 L 3.484375 -1.65625 C 3.535156 -1.65625 3.664062 -1.660156 3.875 -1.671875 C 4.09375 -1.691406 4.28125 -1.703125 4.4375 -1.703125 C 4.5625 -1.703125 4.785156 -1.707031 5.109375 -1.71875 C 5.429688 -1.726562 5.679688 -1.734375 5.859375 -1.734375 L 5.859375 -29.0625 C 5.679688 -29.0625 5.429688 -29.066406 5.109375 -29.078125 C 4.785156 -29.085938 4.5625 -29.09375 4.4375 -29.09375 C 4.28125 -29.09375 4.09375 -29.097656 3.875 -29.109375 C 3.664062 -29.128906 3.535156 -29.140625 3.484375 -29.140625 L 3.03125 -29.140625 C 2.457031 -29.179688 2.171875 -29.441406 2.171875 -29.921875 L 2.171875 -30.75 L 16.53125 -30.75 C 18.757812 -30.75 20.757812 -30.40625 22.53125 -29.71875 C 24.257812 -29.039062 25.796875 -28.003906 27.140625 -26.609375 C 28.460938 -25.253906 29.460938 -23.648438 30.140625 -21.796875 C 30.859375 -19.828125 31.21875 -17.691406 31.21875 -15.390625 C 31.21875 -13.097656 30.859375 -10.96875 30.140625 -9 C 29.441406 -7.101562 28.441406 -5.484375 27.140625 -4.140625 C 25.796875 -2.753906 24.257812 -1.722656 22.53125 -1.046875 C 20.757812 -0.347656 18.757812 0 16.53125 0 Z M 8.09375 -1.78125 L 16.53125 -1.78125 C 18.40625 -1.78125 20.101562 -2.085938 21.625 -2.703125 C 23.164062 -3.316406 24.46875 -4.203125 25.53125 -5.359375 C 26.550781 -6.460938 27.378906 -7.882812 28.015625 -9.625 C 28.617188 -11.3125 28.921875 -13.238281 28.921875 -15.40625 C 28.921875 -17.539062 28.617188 -19.453125 28.015625 -21.140625 C 27.378906 -22.878906 26.550781 -24.300781 25.53125 -25.40625 C 24.46875 -26.550781 23.164062 -27.4375 21.625 -28.0625 C 20.101562 -28.664062 18.40625 -28.96875 16.53125 -28.96875 L 8.09375 -28.96875 Z M 8.09375 -1.78125 "/></g></g><g transform="translate(183.933373, 215.943531)"><g><path d="M 1.65625 -0.296875 C 1.707031 -0.578125 1.734375 -0.78125 1.734375 -0.90625 C 1.765625 -1.050781 1.78125 -1.257812 1.78125 -1.53125 C 1.84375 -1.695312 1.898438 -1.8125 1.953125 -1.875 C 2.035156 -1.957031 2.171875 -2 2.359375 -2 C 2.441406 -2 2.597656 -1.96875 2.828125 -1.90625 C 2.960938 -1.882812 3.179688 -1.84375 3.484375 -1.78125 C 3.554688 -1.769531 3.691406 -1.742188 3.890625 -1.703125 C 4.085938 -1.660156 4.242188 -1.628906 4.359375 -1.609375 C 4.753906 -1.554688 5.140625 -1.53125 5.515625 -1.53125 C 6.617188 -1.53125 7.601562 -1.695312 8.46875 -2.03125 C 9.332031 -2.375 10.09375 -2.914062 10.75 -3.65625 C 11.34375 -4.332031 11.816406 -5.226562 12.171875 -6.34375 C 12.492188 -7.539062 12.65625 -8.832031 12.65625 -10.21875 L 12.65625 -29.0625 C 12.476562 -29.0625 12.21875 -29.066406 11.875 -29.078125 C 11.53125 -29.085938 11.28125 -29.09375 11.125 -29.09375 C 10.945312 -29.09375 10.738281 -29.097656 10.5 -29.109375 C 10.269531 -29.128906 10.117188 -29.140625 10.046875 -29.140625 L 9.53125 -29.140625 C 8.957031 -29.179688 8.671875 -29.441406 8.671875 -29.921875 L 8.671875 -30.796875 L 18.5625 -30.796875 L 18.5625 -29.921875 C 18.5625 -29.441406 18.28125 -29.179688 17.71875 -29.140625 L 17.265625 -29.140625 C 17.210938 -29.140625 17.078125 -29.128906 16.859375 -29.109375 C 16.648438 -29.097656 16.46875 -29.09375 16.3125 -29.09375 C 16.1875 -29.09375 15.957031 -29.085938 15.625 -29.078125 C 15.300781 -29.066406 15.050781 -29.0625 14.875 -29.0625 L 14.875 -10.265625 C 14.875 -8.421875 14.675781 -6.894531 14.28125 -5.6875 C 13.863281 -4.425781 13.253906 -3.332031 12.453125 -2.40625 C 11.710938 -1.550781 10.738281 -0.863281 9.53125 -0.34375 C 8.332031 0.113281 7.050781 0.34375 5.6875 0.34375 C 5.238281 0.34375 4.578125 0.285156 3.703125 0.171875 C 3.117188 0.0976562 2.4375 -0.0546875 1.65625 -0.296875 Z M 1.65625 -0.296875 "/></g></g><g transform="translate(203.495628, 215.943531)"><g><path d="M 2.171875 -29.921875 L 2.171875 -30.75 L 24.3125 -30.75 L 24.3125 -24.40625 L 23.234375 -24.40625 C 22.671875 -24.40625 22.367188 -24.753906 22.328125 -25.453125 C 22.328125 -25.546875 22.316406 -25.738281 22.296875 -26.03125 C 22.273438 -26.332031 22.25 -26.753906 22.21875 -27.296875 C 22.1875 -27.847656 22.15625 -28.390625 22.125 -28.921875 L 8.09375 -28.921875 L 8.09375 -16.484375 L 20.34375 -16.484375 L 20.34375 -14.703125 L 8.09375 -14.703125 L 8.09375 -1.875 L 22.125 -1.875 C 22.125 -2.007812 22.140625 -2.25 22.171875 -2.59375 C 22.203125 -2.945312 22.222656 -3.203125 22.234375 -3.359375 C 22.265625 -3.796875 22.28125 -4.253906 22.28125 -4.734375 C 22.28125 -4.847656 22.285156 -4.96875 22.296875 -5.09375 C 22.316406 -5.21875 22.328125 -5.289062 22.328125 -5.3125 C 22.367188 -6.03125 22.671875 -6.390625 23.234375 -6.390625 L 24.3125 -6.390625 L 24.3125 0 L 2.203125 0 L 2.203125 -0.875 C 2.203125 -1.351562 2.476562 -1.613281 3.03125 -1.65625 L 3.484375 -1.65625 C 3.535156 -1.65625 3.664062 -1.660156 3.875 -1.671875 C 4.09375 -1.691406 4.28125 -1.703125 4.4375 -1.703125 C 4.5625 -1.703125 4.785156 -1.707031 5.109375 -1.71875 C 5.429688 -1.726562 5.679688 -1.734375 5.859375 -1.734375 L 5.859375 -29.0625 C 5.679688 -29.0625 5.429688 -29.066406 5.109375 -29.078125 C 4.785156 -29.085938 4.5625 -29.09375 4.4375 -29.09375 C 4.28125 -29.09375 4.09375 -29.097656 3.875 -29.109375 C 3.664062 -29.128906 3.535156 -29.140625 3.484375 -29.140625 L 3.03125 -29.140625 C 2.457031 -29.179688 2.171875 -29.441406 2.171875 -29.921875 Z M 2.171875 -29.921875 "/></g></g><g transform="translate(230.534444, 215.943531)"><g><path d="M 2.171875 0 L 2.171875 -0.875 C 2.171875 -1.351562 2.457031 -1.613281 3.03125 -1.65625 L 3.484375 -1.65625 C 3.535156 -1.65625 3.664062 -1.660156 3.875 -1.671875 C 4.09375 -1.691406 4.28125 -1.703125 4.4375 -1.703125 C 4.5625 -1.703125 4.785156 -1.707031 5.109375 -1.71875 C 5.429688 -1.726562 5.679688 -1.734375 5.859375 -1.734375 L 5.859375 -29.0625 C 5.679688 -29.0625 5.429688 -29.066406 5.109375 -29.078125 C 4.785156 -29.085938 4.5625 -29.09375 4.4375 -29.09375 C 4.28125 -29.09375 4.09375 -29.097656 3.875 -29.109375 C 3.664062 -29.128906 3.535156 -29.140625 3.484375 -29.140625 L 3.03125 -29.140625 C 2.457031 -29.179688 2.171875 -29.441406 2.171875 -29.921875 L 2.171875 -30.75 L 7.390625 -30.75 C 7.628906 -30.75 7.789062 -30.738281 7.875 -30.71875 C 7.945312 -30.6875 8.0625 -30.570312 8.21875 -30.375 L 20.671875 -8.96875 C 20.835938 -8.664062 21.019531 -8.222656 21.21875 -7.640625 C 21.25 -7.710938 21.296875 -7.828125 21.359375 -7.984375 C 21.421875 -8.148438 21.46875 -8.269531 21.5 -8.34375 C 21.625 -8.675781 21.722656 -8.894531 21.796875 -9 L 33.875 -30.375 C 34.019531 -30.570312 34.140625 -30.6875 34.234375 -30.71875 C 34.316406 -30.738281 34.472656 -30.75 34.703125 -30.75 L 39.9375 -30.75 L 39.9375 -29.921875 C 39.9375 -29.441406 39.644531 -29.179688 39.0625 -29.140625 L 38.671875 -29.140625 C 38.617188 -29.140625 38.476562 -29.128906 38.25 -29.109375 C 38.019531 -29.097656 37.832031 -29.09375 37.6875 -29.09375 C 37.550781 -29.09375 37.328125 -29.085938 37.015625 -29.078125 C 36.703125 -29.066406 36.457031 -29.0625 36.28125 -29.0625 L 36.28125 -1.734375 C 36.457031 -1.734375 36.703125 -1.726562 37.015625 -1.71875 C 37.328125 -1.707031 37.550781 -1.703125 37.6875 -1.703125 C 37.832031 -1.703125 38.019531 -1.691406 38.25 -1.671875 C 38.476562 -1.660156 38.617188 -1.65625 38.671875 -1.65625 L 39.0625 -1.65625 C 39.644531 -1.613281 39.9375 -1.351562 39.9375 -0.875 L 39.9375 0 L 30.546875 0 L 30.546875 -0.875 C 30.546875 -1.351562 30.835938 -1.613281 31.421875 -1.65625 L 31.84375 -1.65625 C 31.894531 -1.65625 32.035156 -1.660156 32.265625 -1.671875 C 32.492188 -1.691406 32.6875 -1.703125 32.84375 -1.703125 C 32.96875 -1.703125 33.195312 -1.707031 33.53125 -1.71875 C 33.875 -1.726562 34.140625 -1.734375 34.328125 -1.734375 L 34.328125 -26.234375 C 34.328125 -26.753906 34.335938 -27.15625 34.359375 -27.4375 L 22.28125 -5.921875 C 22.070312 -5.546875 21.78125 -5.359375 21.40625 -5.359375 L 21.046875 -5.359375 C 20.679688 -5.359375 20.390625 -5.546875 20.171875 -5.921875 L 7.75 -27.4375 C 7.78125 -27.15625 7.796875 -26.753906 7.796875 -26.234375 L 7.796875 -1.734375 C 7.984375 -1.734375 8.238281 -1.726562 8.5625 -1.71875 C 8.894531 -1.707031 9.128906 -1.703125 9.265625 -1.703125 C 9.421875 -1.703125 9.609375 -1.691406 9.828125 -1.671875 C 10.054688 -1.660156 10.203125 -1.65625 10.265625 -1.65625 L 10.703125 -1.65625 C 11.285156 -1.613281 11.578125 -1.351562 11.578125 -0.875 L 11.578125 0 Z M 2.171875 0 "/></g></g><g transform="translate(272.462664, 215.943531)"><g><path d="M 1.65625 0 L 1.65625 -1 C 1.65625 -1.539062 1.929688 -1.832031 2.484375 -1.875 L 3.859375 -2 L 15.65625 -30.796875 L 17.890625 -30.796875 L 29.625 -2 L 31.046875 -1.875 C 31.597656 -1.832031 31.875 -1.539062 31.875 -1 L 31.875 0 L 24.359375 0 L 24.359375 -1 C 24.359375 -1.539062 24.691406 -1.832031 25.359375 -1.875 L 25.453125 -1.890625 C 25.503906 -1.898438 25.554688 -1.90625 25.609375 -1.90625 C 25.640625 -1.90625 25.726562 -1.910156 25.875 -1.921875 C 26.03125 -1.941406 26.164062 -1.953125 26.28125 -1.953125 C 26.71875 -1.953125 27.078125 -1.96875 27.359375 -2 L 24.3125 -9.53125 L 24.109375 -10.09375 L 9.390625 -10.09375 L 9.171875 -9.53125 L 6.140625 -2 C 6.421875 -1.96875 6.796875 -1.953125 7.265625 -1.953125 C 7.378906 -1.953125 7.503906 -1.941406 7.640625 -1.921875 C 7.773438 -1.910156 7.851562 -1.90625 7.875 -1.90625 C 7.914062 -1.90625 7.960938 -1.898438 8.015625 -1.890625 C 8.078125 -1.878906 8.117188 -1.875 8.140625 -1.875 C 8.804688 -1.832031 9.140625 -1.539062 9.140625 -1 L 9.140625 0 Z M 10.09375 -11.75 L 23.453125 -11.75 L 17.359375 -26.765625 C 17.335938 -26.816406 17.285156 -26.9375 17.203125 -27.125 C 17.128906 -27.3125 17.082031 -27.457031 17.0625 -27.5625 C 17.03125 -27.65625 16.972656 -27.804688 16.890625 -28.015625 C 16.816406 -28.222656 16.765625 -28.394531 16.734375 -28.53125 C 16.703125 -28.394531 16.648438 -28.21875 16.578125 -28 C 16.515625 -27.78125 16.46875 -27.632812 16.4375 -27.5625 C 16.40625 -27.457031 16.347656 -27.289062 16.265625 -27.0625 C 16.191406 -26.84375 16.148438 -26.722656 16.140625 -26.703125 Z M 10.09375 -11.75 "/></g></g><g transform="translate(306.000992, 215.943531)"><g><path d="M 2.171875 0 L 2.171875 -0.875 C 2.171875 -1.351562 2.457031 -1.613281 3.03125 -1.65625 L 3.484375 -1.65625 C 3.535156 -1.65625 3.664062 -1.660156 3.875 -1.671875 C 4.09375 -1.691406 4.28125 -1.703125 4.4375 -1.703125 C 4.5625 -1.703125 4.785156 -1.707031 5.109375 -1.71875 C 5.429688 -1.726562 5.679688 -1.734375 5.859375 -1.734375 L 5.859375 -29.0625 C 5.679688 -29.0625 5.429688 -29.066406 5.109375 -29.078125 C 4.785156 -29.085938 4.5625 -29.09375 4.4375 -29.09375 C 4.28125 -29.09375 4.09375 -29.097656 3.875 -29.109375 C 3.664062 -29.128906 3.535156 -29.140625 3.484375 -29.140625 L 3.03125 -29.140625 C 2.457031 -29.179688 2.171875 -29.441406 2.171875 -29.921875 L 2.171875 -30.796875 L 11.75 -30.796875 L 11.75 -29.921875 C 11.75 -29.441406 11.472656 -29.179688 10.921875 -29.140625 L 10.5 -29.140625 C 10.4375 -29.140625 10.296875 -29.128906 10.078125 -29.109375 C 9.867188 -29.097656 9.6875 -29.09375 9.53125 -29.09375 C 9.40625 -29.09375 9.179688 -29.085938 8.859375 -29.078125 C 8.535156 -29.066406 8.28125 -29.0625 8.09375 -29.0625 L 8.09375 -1.734375 C 8.28125 -1.734375 8.535156 -1.726562 8.859375 -1.71875 C 9.179688 -1.707031 9.40625 -1.703125 9.53125 -1.703125 C 9.6875 -1.703125 9.867188 -1.691406 10.078125 -1.671875 C 10.296875 -1.660156 10.4375 -1.65625 10.5 -1.65625 L 10.921875 -1.65625 C 11.472656 -1.613281 11.75 -1.351562 11.75 -0.875 L 11.75 0 Z M 2.171875 0 "/></g></g></g></svg>